<mxfile host="Electron" modified="2025-10-07T22:37:34.781Z" agent="Mozilla/5.0 (Windows NT 10.0; Win64; x64) AppleWebKit/537.36 (KHTML, like Gecko) draw.io/22.0.2 Chrome/114.0.5735.289 Electron/25.8.4 Safari/537.36" etag="MbxZZj2WPJcU1INENh3I" version="22.0.2" type="device">
  <diagram name="Страница — 1" id="aQh68ZKa-eHE1iouE-rj">
    <mxGraphModel dx="1999" dy="1206" grid="1" gridSize="10" guides="1" tooltips="1" connect="1" arrows="1" fold="1" page="1" pageScale="1" pageWidth="1000" pageHeight="1000" math="0" shadow="0">
      <root>
        <mxCell id="0" />
        <mxCell id="1" parent="0" />
        <mxCell id="E7OsbplF2mJb9hVgmUEF-100" value="" style="rounded=0;whiteSpace=wrap;html=1;fillColor=none;dashed=1;" vertex="1" parent="1">
          <mxGeometry x="720" y="320" width="200" height="360" as="geometry" />
        </mxCell>
        <mxCell id="E7OsbplF2mJb9hVgmUEF-81" value="" style="rounded=0;whiteSpace=wrap;html=1;fillColor=none;dashed=1;" vertex="1" parent="1">
          <mxGeometry x="480" y="290" width="160" height="440" as="geometry" />
        </mxCell>
        <mxCell id="E7OsbplF2mJb9hVgmUEF-80" value="8 more nodes" style="text;html=1;strokeColor=none;fillColor=none;align=center;verticalAlign=middle;whiteSpace=wrap;rounded=0;" vertex="1" parent="1">
          <mxGeometry x="520" y="490" width="80" height="40" as="geometry" />
        </mxCell>
        <mxCell id="E7OsbplF2mJb9hVgmUEF-83" value="" style="group" vertex="1" connectable="0" parent="1">
          <mxGeometry x="725" y="180" width="235" height="100" as="geometry" />
        </mxCell>
        <mxCell id="E7OsbplF2mJb9hVgmUEF-15" value="" style="rounded=0;whiteSpace=wrap;html=1;fillColor=#0050ef;fontColor=#ffffff;strokeColor=#001DBC;container=0;" vertex="1" parent="E7OsbplF2mJb9hVgmUEF-83">
          <mxGeometry x="35" y="40" width="20" height="20" as="geometry" />
        </mxCell>
        <mxCell id="E7OsbplF2mJb9hVgmUEF-16" value="" style="rounded=0;whiteSpace=wrap;html=1;fillColor=#60a917;fontColor=#ffffff;strokeColor=#2D7600;container=0;" vertex="1" parent="E7OsbplF2mJb9hVgmUEF-83">
          <mxGeometry x="65" y="40" width="20" height="20" as="geometry" />
        </mxCell>
        <mxCell id="E7OsbplF2mJb9hVgmUEF-17" value="" style="rounded=0;whiteSpace=wrap;html=1;fillColor=#008a00;fontColor=#ffffff;strokeColor=#005700;container=0;" vertex="1" parent="E7OsbplF2mJb9hVgmUEF-83">
          <mxGeometry x="95" y="40" width="20" height="20" as="geometry" />
        </mxCell>
        <mxCell id="E7OsbplF2mJb9hVgmUEF-18" value="" style="rounded=0;whiteSpace=wrap;html=1;fillColor=#e3c800;fontColor=#000000;strokeColor=#B09500;container=0;" vertex="1" parent="E7OsbplF2mJb9hVgmUEF-83">
          <mxGeometry x="125" y="40" width="20" height="20" as="geometry" />
        </mxCell>
        <mxCell id="E7OsbplF2mJb9hVgmUEF-19" value="" style="rounded=0;whiteSpace=wrap;html=1;fillColor=#fa6800;fontColor=#000000;strokeColor=#C73500;container=0;" vertex="1" parent="E7OsbplF2mJb9hVgmUEF-83">
          <mxGeometry x="155" y="40" width="20" height="20" as="geometry" />
        </mxCell>
        <mxCell id="E7OsbplF2mJb9hVgmUEF-20" value="" style="rounded=0;whiteSpace=wrap;html=1;fillColor=#e51400;fontColor=#ffffff;strokeColor=#B20000;container=0;" vertex="1" parent="E7OsbplF2mJb9hVgmUEF-83">
          <mxGeometry x="185" y="40" width="20" height="20" as="geometry" />
        </mxCell>
        <mxCell id="E7OsbplF2mJb9hVgmUEF-33" value="L7 ingress pod" style="text;html=1;strokeColor=none;fillColor=none;align=center;verticalAlign=middle;whiteSpace=wrap;rounded=0;container=0;" vertex="1" parent="E7OsbplF2mJb9hVgmUEF-83">
          <mxGeometry width="90" height="30" as="geometry" />
        </mxCell>
        <mxCell id="E7OsbplF2mJb9hVgmUEF-34" value="Service pods" style="text;html=1;strokeColor=none;fillColor=none;align=center;verticalAlign=middle;whiteSpace=wrap;rounded=0;container=0;" vertex="1" parent="E7OsbplF2mJb9hVgmUEF-83">
          <mxGeometry x="65" y="70" width="170" height="30" as="geometry" />
        </mxCell>
        <mxCell id="E7OsbplF2mJb9hVgmUEF-35" value="" style="endArrow=none;html=1;rounded=0;" edge="1" parent="E7OsbplF2mJb9hVgmUEF-83">
          <mxGeometry width="50" height="50" relative="1" as="geometry">
            <mxPoint x="55" y="30" as="sourcePoint" />
            <mxPoint x="35" y="30" as="targetPoint" />
          </mxGeometry>
        </mxCell>
        <mxCell id="E7OsbplF2mJb9hVgmUEF-36" value="" style="endArrow=none;html=1;rounded=0;" edge="1" parent="E7OsbplF2mJb9hVgmUEF-83">
          <mxGeometry width="50" height="50" relative="1" as="geometry">
            <mxPoint x="235" y="70" as="sourcePoint" />
            <mxPoint x="65" y="70" as="targetPoint" />
          </mxGeometry>
        </mxCell>
        <mxCell id="E7OsbplF2mJb9hVgmUEF-79" value="" style="rounded=0;whiteSpace=wrap;html=1;fillColor=#d80073;fontColor=#ffffff;strokeColor=#A50040;container=0;" vertex="1" parent="E7OsbplF2mJb9hVgmUEF-83">
          <mxGeometry x="215" y="40" width="20" height="20" as="geometry" />
        </mxCell>
        <mxCell id="E7OsbplF2mJb9hVgmUEF-84" value="" style="endArrow=none;html=1;rounded=0;exitX=1;exitY=0.5;exitDx=0;exitDy=0;entryX=0;entryY=0.5;entryDx=0;entryDy=0;" edge="1" parent="1" source="E7OsbplF2mJb9hVgmUEF-2" target="E7OsbplF2mJb9hVgmUEF-37">
          <mxGeometry width="50" height="50" relative="1" as="geometry">
            <mxPoint x="460" y="340" as="sourcePoint" />
            <mxPoint x="520" y="390" as="targetPoint" />
          </mxGeometry>
        </mxCell>
        <mxCell id="E7OsbplF2mJb9hVgmUEF-7" value="" style="rounded=0;whiteSpace=wrap;html=1;fillColor=none;dashed=1;" vertex="1" parent="1">
          <mxGeometry x="240" y="410" width="160" height="200" as="geometry" />
        </mxCell>
        <mxCell id="E7OsbplF2mJb9hVgmUEF-1" value="Floating IP" style="rounded=0;whiteSpace=wrap;html=1;" vertex="1" parent="1">
          <mxGeometry x="210" y="490" width="70" height="40" as="geometry" />
        </mxCell>
        <mxCell id="E7OsbplF2mJb9hVgmUEF-2" value="L4" style="rounded=0;whiteSpace=wrap;html=1;" vertex="1" parent="1">
          <mxGeometry x="350" y="420" width="40" height="40" as="geometry" />
        </mxCell>
        <mxCell id="E7OsbplF2mJb9hVgmUEF-3" value="L4" style="rounded=0;whiteSpace=wrap;html=1;" vertex="1" parent="1">
          <mxGeometry x="350" y="490" width="40" height="40" as="geometry" />
        </mxCell>
        <mxCell id="E7OsbplF2mJb9hVgmUEF-4" value="L4" style="rounded=0;whiteSpace=wrap;html=1;" vertex="1" parent="1">
          <mxGeometry x="350" y="560" width="40" height="40" as="geometry" />
        </mxCell>
        <mxCell id="E7OsbplF2mJb9hVgmUEF-6" style="edgeStyle=orthogonalEdgeStyle;rounded=0;orthogonalLoop=1;jettySize=auto;html=1;entryX=0.5;entryY=0;entryDx=0;entryDy=0;endArrow=none;endFill=0;dashed=1;exitX=0.5;exitY=1;exitDx=0;exitDy=0;" edge="1" parent="1" source="E7OsbplF2mJb9hVgmUEF-3" target="E7OsbplF2mJb9hVgmUEF-4">
          <mxGeometry relative="1" as="geometry">
            <mxPoint x="510" y="560" as="sourcePoint" />
            <mxPoint x="400" y="500" as="targetPoint" />
          </mxGeometry>
        </mxCell>
        <mxCell id="E7OsbplF2mJb9hVgmUEF-8" value="" style="endArrow=none;html=1;rounded=0;exitX=1;exitY=0.5;exitDx=0;exitDy=0;entryX=0;entryY=0.5;entryDx=0;entryDy=0;" edge="1" parent="1" source="E7OsbplF2mJb9hVgmUEF-1" target="E7OsbplF2mJb9hVgmUEF-2">
          <mxGeometry width="50" height="50" relative="1" as="geometry">
            <mxPoint x="550" y="630" as="sourcePoint" />
            <mxPoint x="600" y="580" as="targetPoint" />
          </mxGeometry>
        </mxCell>
        <mxCell id="E7OsbplF2mJb9hVgmUEF-5" style="edgeStyle=orthogonalEdgeStyle;rounded=0;orthogonalLoop=1;jettySize=auto;html=1;entryX=0.5;entryY=0;entryDx=0;entryDy=0;endArrow=none;endFill=0;dashed=1;exitX=0.5;exitY=1;exitDx=0;exitDy=0;" edge="1" parent="1" source="E7OsbplF2mJb9hVgmUEF-2" target="E7OsbplF2mJb9hVgmUEF-3">
          <mxGeometry relative="1" as="geometry">
            <mxPoint x="450" y="450" as="sourcePoint" />
          </mxGeometry>
        </mxCell>
        <mxCell id="E7OsbplF2mJb9hVgmUEF-9" value="" style="endArrow=none;html=1;rounded=0;exitX=1;exitY=0.5;exitDx=0;exitDy=0;entryX=0;entryY=0.5;entryDx=0;entryDy=0;" edge="1" parent="1" source="E7OsbplF2mJb9hVgmUEF-1" target="E7OsbplF2mJb9hVgmUEF-3">
          <mxGeometry width="50" height="50" relative="1" as="geometry">
            <mxPoint x="330" y="520" as="sourcePoint" />
            <mxPoint x="360" y="450" as="targetPoint" />
          </mxGeometry>
        </mxCell>
        <mxCell id="E7OsbplF2mJb9hVgmUEF-10" value="" style="endArrow=none;html=1;rounded=0;exitX=1;exitY=0.5;exitDx=0;exitDy=0;entryX=0;entryY=0.5;entryDx=0;entryDy=0;" edge="1" parent="1" source="E7OsbplF2mJb9hVgmUEF-1" target="E7OsbplF2mJb9hVgmUEF-4">
          <mxGeometry width="50" height="50" relative="1" as="geometry">
            <mxPoint x="330" y="520" as="sourcePoint" />
            <mxPoint x="360" y="520" as="targetPoint" />
          </mxGeometry>
        </mxCell>
        <mxCell id="E7OsbplF2mJb9hVgmUEF-13" value="L4 cluster" style="text;html=1;strokeColor=none;fillColor=none;align=center;verticalAlign=middle;whiteSpace=wrap;rounded=0;" vertex="1" parent="1">
          <mxGeometry x="240" y="410" width="80" height="30" as="geometry" />
        </mxCell>
        <mxCell id="E7OsbplF2mJb9hVgmUEF-86" value="" style="endArrow=none;html=1;rounded=0;exitX=1;exitY=0.5;exitDx=0;exitDy=0;entryX=0;entryY=0.5;entryDx=0;entryDy=0;" edge="1" parent="1" source="E7OsbplF2mJb9hVgmUEF-3" target="E7OsbplF2mJb9hVgmUEF-37">
          <mxGeometry width="50" height="50" relative="1" as="geometry">
            <mxPoint x="430" y="410" as="sourcePoint" />
            <mxPoint x="690" y="500" as="targetPoint" />
          </mxGeometry>
        </mxCell>
        <mxCell id="E7OsbplF2mJb9hVgmUEF-87" value="" style="endArrow=none;html=1;rounded=0;exitX=1;exitY=0.5;exitDx=0;exitDy=0;entryX=0;entryY=0.5;entryDx=0;entryDy=0;" edge="1" parent="1" source="E7OsbplF2mJb9hVgmUEF-4" target="E7OsbplF2mJb9hVgmUEF-37">
          <mxGeometry width="50" height="50" relative="1" as="geometry">
            <mxPoint x="420" y="460" as="sourcePoint" />
            <mxPoint x="680" y="480" as="targetPoint" />
          </mxGeometry>
        </mxCell>
        <mxCell id="E7OsbplF2mJb9hVgmUEF-89" value="" style="endArrow=none;html=1;rounded=0;exitX=1;exitY=0.5;exitDx=0;exitDy=0;entryX=0;entryY=0.5;entryDx=0;entryDy=0;" edge="1" parent="1" source="E7OsbplF2mJb9hVgmUEF-4" target="E7OsbplF2mJb9hVgmUEF-53">
          <mxGeometry width="50" height="50" relative="1" as="geometry">
            <mxPoint x="450" y="465" as="sourcePoint" />
            <mxPoint x="830" y="555" as="targetPoint" />
          </mxGeometry>
        </mxCell>
        <mxCell id="E7OsbplF2mJb9hVgmUEF-90" value="Worker cluster" style="text;html=1;strokeColor=none;fillColor=none;align=center;verticalAlign=middle;whiteSpace=wrap;rounded=0;" vertex="1" parent="1">
          <mxGeometry x="520" y="290" width="120" height="40" as="geometry" />
        </mxCell>
        <mxCell id="E7OsbplF2mJb9hVgmUEF-91" value="" style="endArrow=none;html=1;rounded=0;exitX=1;exitY=0.5;exitDx=0;exitDy=0;entryX=0;entryY=0.5;entryDx=0;entryDy=0;" edge="1" parent="1" source="E7OsbplF2mJb9hVgmUEF-2" target="E7OsbplF2mJb9hVgmUEF-53">
          <mxGeometry width="50" height="50" relative="1" as="geometry">
            <mxPoint x="400" y="330" as="sourcePoint" />
            <mxPoint x="660" y="420" as="targetPoint" />
          </mxGeometry>
        </mxCell>
        <mxCell id="E7OsbplF2mJb9hVgmUEF-92" value="" style="endArrow=none;html=1;rounded=0;exitX=1;exitY=0.5;exitDx=0;exitDy=0;entryX=0;entryY=0.5;entryDx=0;entryDy=0;" edge="1" parent="1" source="E7OsbplF2mJb9hVgmUEF-3" target="E7OsbplF2mJb9hVgmUEF-53">
          <mxGeometry width="50" height="50" relative="1" as="geometry">
            <mxPoint x="400" y="400" as="sourcePoint" />
            <mxPoint x="660" y="420" as="targetPoint" />
          </mxGeometry>
        </mxCell>
        <mxCell id="E7OsbplF2mJb9hVgmUEF-93" value="Master node" style="rounded=0;whiteSpace=wrap;html=1;" vertex="1" parent="1">
          <mxGeometry x="830" y="390" width="80" height="40" as="geometry" />
        </mxCell>
        <mxCell id="E7OsbplF2mJb9hVgmUEF-94" value="" style="group" vertex="1" connectable="0" parent="1">
          <mxGeometry x="510" y="330" width="90" height="160" as="geometry" />
        </mxCell>
        <mxCell id="E7OsbplF2mJb9hVgmUEF-50" value="" style="group;fillColor=default;container=0;" vertex="1" connectable="0" parent="E7OsbplF2mJb9hVgmUEF-94">
          <mxGeometry x="10" width="80" height="160" as="geometry" />
        </mxCell>
        <mxCell id="E7OsbplF2mJb9hVgmUEF-12" value="" style="rounded=0;whiteSpace=wrap;html=1;fillColor=none;" vertex="1" parent="E7OsbplF2mJb9hVgmUEF-94">
          <mxGeometry x="10" width="80" height="160" as="geometry" />
        </mxCell>
        <mxCell id="E7OsbplF2mJb9hVgmUEF-37" value="" style="rounded=0;whiteSpace=wrap;html=1;fillColor=#0050ef;fontColor=#ffffff;strokeColor=#001DBC;" vertex="1" parent="E7OsbplF2mJb9hVgmUEF-94">
          <mxGeometry y="70" width="20" height="20" as="geometry" />
        </mxCell>
        <mxCell id="E7OsbplF2mJb9hVgmUEF-38" value="" style="rounded=0;whiteSpace=wrap;html=1;fillColor=#60a917;fontColor=#ffffff;strokeColor=#2D7600;" vertex="1" parent="E7OsbplF2mJb9hVgmUEF-94">
          <mxGeometry x="60" y="10" width="20" height="20" as="geometry" />
        </mxCell>
        <mxCell id="E7OsbplF2mJb9hVgmUEF-39" value="" style="rounded=0;whiteSpace=wrap;html=1;fillColor=#008a00;fontColor=#ffffff;strokeColor=#005700;" vertex="1" parent="E7OsbplF2mJb9hVgmUEF-94">
          <mxGeometry x="60" y="40" width="20" height="20" as="geometry" />
        </mxCell>
        <mxCell id="E7OsbplF2mJb9hVgmUEF-40" value="" style="rounded=0;whiteSpace=wrap;html=1;fillColor=#e3c800;fontColor=#000000;strokeColor=#B09500;" vertex="1" parent="E7OsbplF2mJb9hVgmUEF-94">
          <mxGeometry x="60" y="70" width="20" height="20" as="geometry" />
        </mxCell>
        <mxCell id="E7OsbplF2mJb9hVgmUEF-41" value="" style="rounded=0;whiteSpace=wrap;html=1;fillColor=#fa6800;fontColor=#000000;strokeColor=#C73500;" vertex="1" parent="E7OsbplF2mJb9hVgmUEF-94">
          <mxGeometry x="60" y="100" width="20" height="20" as="geometry" />
        </mxCell>
        <mxCell id="E7OsbplF2mJb9hVgmUEF-42" value="" style="rounded=0;whiteSpace=wrap;html=1;fillColor=#fa6800;fontColor=#000000;strokeColor=#C73500;" vertex="1" parent="E7OsbplF2mJb9hVgmUEF-94">
          <mxGeometry x="60" y="130" width="20" height="20" as="geometry" />
        </mxCell>
        <mxCell id="E7OsbplF2mJb9hVgmUEF-43" value="Worker node" style="text;html=1;strokeColor=none;fillColor=none;align=center;verticalAlign=middle;whiteSpace=wrap;rounded=0;" vertex="1" parent="E7OsbplF2mJb9hVgmUEF-94">
          <mxGeometry x="10" width="50" height="30" as="geometry" />
        </mxCell>
        <mxCell id="E7OsbplF2mJb9hVgmUEF-45" value="" style="endArrow=none;html=1;rounded=0;entryX=0;entryY=0.5;entryDx=0;entryDy=0;exitX=1;exitY=0.5;exitDx=0;exitDy=0;" edge="1" parent="E7OsbplF2mJb9hVgmUEF-94" source="E7OsbplF2mJb9hVgmUEF-37" target="E7OsbplF2mJb9hVgmUEF-38">
          <mxGeometry width="50" height="50" relative="1" as="geometry">
            <mxPoint x="-60" y="110" as="sourcePoint" />
            <mxPoint x="-10" y="60" as="targetPoint" />
          </mxGeometry>
        </mxCell>
        <mxCell id="E7OsbplF2mJb9hVgmUEF-46" value="" style="endArrow=none;html=1;rounded=0;entryX=0;entryY=0.5;entryDx=0;entryDy=0;exitX=1;exitY=0.5;exitDx=0;exitDy=0;" edge="1" parent="E7OsbplF2mJb9hVgmUEF-94" source="E7OsbplF2mJb9hVgmUEF-37" target="E7OsbplF2mJb9hVgmUEF-39">
          <mxGeometry width="50" height="50" relative="1" as="geometry">
            <mxPoint x="50" y="90" as="sourcePoint" />
            <mxPoint x="70" y="30" as="targetPoint" />
          </mxGeometry>
        </mxCell>
        <mxCell id="E7OsbplF2mJb9hVgmUEF-47" value="" style="endArrow=none;html=1;rounded=0;entryX=0;entryY=0.5;entryDx=0;entryDy=0;exitX=1;exitY=0.5;exitDx=0;exitDy=0;" edge="1" parent="E7OsbplF2mJb9hVgmUEF-94" source="E7OsbplF2mJb9hVgmUEF-37" target="E7OsbplF2mJb9hVgmUEF-40">
          <mxGeometry width="50" height="50" relative="1" as="geometry">
            <mxPoint x="50" y="90" as="sourcePoint" />
            <mxPoint x="70" y="60" as="targetPoint" />
          </mxGeometry>
        </mxCell>
        <mxCell id="E7OsbplF2mJb9hVgmUEF-48" value="" style="endArrow=none;html=1;rounded=0;entryX=0;entryY=0.5;entryDx=0;entryDy=0;exitX=1;exitY=0.5;exitDx=0;exitDy=0;" edge="1" parent="E7OsbplF2mJb9hVgmUEF-94" source="E7OsbplF2mJb9hVgmUEF-37" target="E7OsbplF2mJb9hVgmUEF-41">
          <mxGeometry width="50" height="50" relative="1" as="geometry">
            <mxPoint x="50" y="90" as="sourcePoint" />
            <mxPoint x="70" y="90" as="targetPoint" />
          </mxGeometry>
        </mxCell>
        <mxCell id="E7OsbplF2mJb9hVgmUEF-49" value="" style="endArrow=none;html=1;rounded=0;entryX=0;entryY=0.5;entryDx=0;entryDy=0;exitX=1;exitY=0.5;exitDx=0;exitDy=0;" edge="1" parent="E7OsbplF2mJb9hVgmUEF-94" source="E7OsbplF2mJb9hVgmUEF-37" target="E7OsbplF2mJb9hVgmUEF-42">
          <mxGeometry width="50" height="50" relative="1" as="geometry">
            <mxPoint x="50" y="90" as="sourcePoint" />
            <mxPoint x="70" y="120" as="targetPoint" />
          </mxGeometry>
        </mxCell>
        <mxCell id="E7OsbplF2mJb9hVgmUEF-95" value="" style="group" vertex="1" connectable="0" parent="1">
          <mxGeometry x="510" y="530" width="90" height="160" as="geometry" />
        </mxCell>
        <mxCell id="E7OsbplF2mJb9hVgmUEF-51" value="" style="group;fillColor=default;container=0;" vertex="1" connectable="0" parent="E7OsbplF2mJb9hVgmUEF-95">
          <mxGeometry x="10" width="80" height="160" as="geometry" />
        </mxCell>
        <mxCell id="E7OsbplF2mJb9hVgmUEF-52" value="" style="rounded=0;whiteSpace=wrap;html=1;fillColor=none;" vertex="1" parent="E7OsbplF2mJb9hVgmUEF-95">
          <mxGeometry x="10" width="80" height="160" as="geometry" />
        </mxCell>
        <mxCell id="E7OsbplF2mJb9hVgmUEF-53" value="" style="rounded=0;whiteSpace=wrap;html=1;fillColor=#0050ef;fontColor=#ffffff;strokeColor=#001DBC;" vertex="1" parent="E7OsbplF2mJb9hVgmUEF-95">
          <mxGeometry y="70" width="20" height="20" as="geometry" />
        </mxCell>
        <mxCell id="E7OsbplF2mJb9hVgmUEF-54" value="" style="rounded=0;whiteSpace=wrap;html=1;fillColor=#60a917;fontColor=#ffffff;strokeColor=#2D7600;" vertex="1" parent="E7OsbplF2mJb9hVgmUEF-95">
          <mxGeometry x="60" y="10" width="20" height="20" as="geometry" />
        </mxCell>
        <mxCell id="E7OsbplF2mJb9hVgmUEF-55" value="" style="rounded=0;whiteSpace=wrap;html=1;fillColor=#008a00;fontColor=#ffffff;strokeColor=#005700;" vertex="1" parent="E7OsbplF2mJb9hVgmUEF-95">
          <mxGeometry x="60" y="40" width="20" height="20" as="geometry" />
        </mxCell>
        <mxCell id="E7OsbplF2mJb9hVgmUEF-56" value="" style="rounded=0;whiteSpace=wrap;html=1;fillColor=#e3c800;fontColor=#000000;strokeColor=#B09500;" vertex="1" parent="E7OsbplF2mJb9hVgmUEF-95">
          <mxGeometry x="60" y="70" width="20" height="20" as="geometry" />
        </mxCell>
        <mxCell id="E7OsbplF2mJb9hVgmUEF-57" value="" style="rounded=0;whiteSpace=wrap;html=1;fillColor=#e51400;fontColor=#ffffff;strokeColor=#B20000;" vertex="1" parent="E7OsbplF2mJb9hVgmUEF-95">
          <mxGeometry x="60" y="100" width="20" height="20" as="geometry" />
        </mxCell>
        <mxCell id="E7OsbplF2mJb9hVgmUEF-58" value="" style="rounded=0;whiteSpace=wrap;html=1;fillColor=#d80073;fontColor=#ffffff;strokeColor=#A50040;" vertex="1" parent="E7OsbplF2mJb9hVgmUEF-95">
          <mxGeometry x="60" y="130" width="20" height="20" as="geometry" />
        </mxCell>
        <mxCell id="E7OsbplF2mJb9hVgmUEF-59" value="Worker node" style="text;html=1;strokeColor=none;fillColor=none;align=center;verticalAlign=middle;whiteSpace=wrap;rounded=0;" vertex="1" parent="E7OsbplF2mJb9hVgmUEF-95">
          <mxGeometry x="10" width="50" height="30" as="geometry" />
        </mxCell>
        <mxCell id="E7OsbplF2mJb9hVgmUEF-60" value="" style="endArrow=none;html=1;rounded=0;entryX=0;entryY=0.5;entryDx=0;entryDy=0;exitX=1;exitY=0.5;exitDx=0;exitDy=0;" edge="1" parent="E7OsbplF2mJb9hVgmUEF-95" source="E7OsbplF2mJb9hVgmUEF-53" target="E7OsbplF2mJb9hVgmUEF-54">
          <mxGeometry width="50" height="50" relative="1" as="geometry">
            <mxPoint x="-60" y="110" as="sourcePoint" />
            <mxPoint x="-10" y="60" as="targetPoint" />
          </mxGeometry>
        </mxCell>
        <mxCell id="E7OsbplF2mJb9hVgmUEF-61" value="" style="endArrow=none;html=1;rounded=0;entryX=0;entryY=0.5;entryDx=0;entryDy=0;exitX=1;exitY=0.5;exitDx=0;exitDy=0;" edge="1" parent="E7OsbplF2mJb9hVgmUEF-95" source="E7OsbplF2mJb9hVgmUEF-53" target="E7OsbplF2mJb9hVgmUEF-55">
          <mxGeometry width="50" height="50" relative="1" as="geometry">
            <mxPoint x="50" y="90" as="sourcePoint" />
            <mxPoint x="70" y="30" as="targetPoint" />
          </mxGeometry>
        </mxCell>
        <mxCell id="E7OsbplF2mJb9hVgmUEF-62" value="" style="endArrow=none;html=1;rounded=0;entryX=0;entryY=0.5;entryDx=0;entryDy=0;exitX=1;exitY=0.5;exitDx=0;exitDy=0;" edge="1" parent="E7OsbplF2mJb9hVgmUEF-95" source="E7OsbplF2mJb9hVgmUEF-53" target="E7OsbplF2mJb9hVgmUEF-56">
          <mxGeometry width="50" height="50" relative="1" as="geometry">
            <mxPoint x="50" y="90" as="sourcePoint" />
            <mxPoint x="70" y="60" as="targetPoint" />
          </mxGeometry>
        </mxCell>
        <mxCell id="E7OsbplF2mJb9hVgmUEF-63" value="" style="endArrow=none;html=1;rounded=0;entryX=0;entryY=0.5;entryDx=0;entryDy=0;exitX=1;exitY=0.5;exitDx=0;exitDy=0;" edge="1" parent="E7OsbplF2mJb9hVgmUEF-95" source="E7OsbplF2mJb9hVgmUEF-53" target="E7OsbplF2mJb9hVgmUEF-57">
          <mxGeometry width="50" height="50" relative="1" as="geometry">
            <mxPoint x="50" y="90" as="sourcePoint" />
            <mxPoint x="70" y="90" as="targetPoint" />
          </mxGeometry>
        </mxCell>
        <mxCell id="E7OsbplF2mJb9hVgmUEF-64" value="" style="endArrow=none;html=1;rounded=0;entryX=0;entryY=0.5;entryDx=0;entryDy=0;exitX=1;exitY=0.5;exitDx=0;exitDy=0;" edge="1" parent="E7OsbplF2mJb9hVgmUEF-95" source="E7OsbplF2mJb9hVgmUEF-53" target="E7OsbplF2mJb9hVgmUEF-58">
          <mxGeometry width="50" height="50" relative="1" as="geometry">
            <mxPoint x="50" y="90" as="sourcePoint" />
            <mxPoint x="70" y="120" as="targetPoint" />
          </mxGeometry>
        </mxCell>
        <mxCell id="E7OsbplF2mJb9hVgmUEF-99" value="Master cluster" style="text;html=1;strokeColor=none;fillColor=none;align=center;verticalAlign=middle;whiteSpace=wrap;rounded=0;" vertex="1" parent="1">
          <mxGeometry x="800" y="320" width="120" height="40" as="geometry" />
        </mxCell>
        <mxCell id="E7OsbplF2mJb9hVgmUEF-101" value="Master node" style="rounded=0;whiteSpace=wrap;html=1;" vertex="1" parent="1">
          <mxGeometry x="830" y="440" width="80" height="40" as="geometry" />
        </mxCell>
        <mxCell id="E7OsbplF2mJb9hVgmUEF-102" value="Master node" style="rounded=0;whiteSpace=wrap;html=1;" vertex="1" parent="1">
          <mxGeometry x="830" y="490" width="80" height="40" as="geometry" />
        </mxCell>
        <mxCell id="E7OsbplF2mJb9hVgmUEF-103" value="Master node" style="rounded=0;whiteSpace=wrap;html=1;" vertex="1" parent="1">
          <mxGeometry x="830" y="540" width="80" height="40" as="geometry" />
        </mxCell>
        <mxCell id="E7OsbplF2mJb9hVgmUEF-104" value="Master node" style="rounded=0;whiteSpace=wrap;html=1;" vertex="1" parent="1">
          <mxGeometry x="830" y="590" width="80" height="40" as="geometry" />
        </mxCell>
        <mxCell id="E7OsbplF2mJb9hVgmUEF-105" value="Load balancer" style="rounded=0;whiteSpace=wrap;html=1;" vertex="1" parent="1">
          <mxGeometry x="700" y="490" width="100" height="40" as="geometry" />
        </mxCell>
        <mxCell id="E7OsbplF2mJb9hVgmUEF-106" value="" style="endArrow=none;html=1;rounded=0;entryX=0;entryY=0.5;entryDx=0;entryDy=0;exitX=1;exitY=0.5;exitDx=0;exitDy=0;" edge="1" parent="1" source="E7OsbplF2mJb9hVgmUEF-105" target="E7OsbplF2mJb9hVgmUEF-93">
          <mxGeometry width="50" height="50" relative="1" as="geometry">
            <mxPoint x="630" y="510" as="sourcePoint" />
            <mxPoint x="680" y="460" as="targetPoint" />
          </mxGeometry>
        </mxCell>
        <mxCell id="E7OsbplF2mJb9hVgmUEF-107" value="" style="endArrow=none;html=1;rounded=0;entryX=0;entryY=0.5;entryDx=0;entryDy=0;exitX=1;exitY=0.5;exitDx=0;exitDy=0;" edge="1" parent="1" source="E7OsbplF2mJb9hVgmUEF-105" target="E7OsbplF2mJb9hVgmUEF-101">
          <mxGeometry width="50" height="50" relative="1" as="geometry">
            <mxPoint x="810" y="520" as="sourcePoint" />
            <mxPoint x="840" y="360" as="targetPoint" />
          </mxGeometry>
        </mxCell>
        <mxCell id="E7OsbplF2mJb9hVgmUEF-108" value="" style="endArrow=none;html=1;rounded=0;entryX=0;entryY=0.5;entryDx=0;entryDy=0;exitX=1;exitY=0.5;exitDx=0;exitDy=0;" edge="1" parent="1" source="E7OsbplF2mJb9hVgmUEF-105" target="E7OsbplF2mJb9hVgmUEF-102">
          <mxGeometry width="50" height="50" relative="1" as="geometry">
            <mxPoint x="810" y="520" as="sourcePoint" />
            <mxPoint x="840" y="440" as="targetPoint" />
          </mxGeometry>
        </mxCell>
        <mxCell id="E7OsbplF2mJb9hVgmUEF-109" value="" style="endArrow=none;html=1;rounded=0;entryX=0;entryY=0.5;entryDx=0;entryDy=0;exitX=1;exitY=0.5;exitDx=0;exitDy=0;" edge="1" parent="1" source="E7OsbplF2mJb9hVgmUEF-105" target="E7OsbplF2mJb9hVgmUEF-103">
          <mxGeometry width="50" height="50" relative="1" as="geometry">
            <mxPoint x="810" y="520" as="sourcePoint" />
            <mxPoint x="840" y="520" as="targetPoint" />
          </mxGeometry>
        </mxCell>
        <mxCell id="E7OsbplF2mJb9hVgmUEF-110" value="" style="endArrow=none;html=1;rounded=0;entryX=0;entryY=0.5;entryDx=0;entryDy=0;exitX=1;exitY=0.5;exitDx=0;exitDy=0;" edge="1" parent="1" source="E7OsbplF2mJb9hVgmUEF-105" target="E7OsbplF2mJb9hVgmUEF-104">
          <mxGeometry width="50" height="50" relative="1" as="geometry">
            <mxPoint x="650" y="570" as="sourcePoint" />
            <mxPoint x="840" y="600" as="targetPoint" />
          </mxGeometry>
        </mxCell>
        <mxCell id="E7OsbplF2mJb9hVgmUEF-111" value="" style="endArrow=none;html=1;rounded=0;entryX=1;entryY=0.5;entryDx=0;entryDy=0;exitX=0;exitY=0.5;exitDx=0;exitDy=0;" edge="1" parent="1" source="E7OsbplF2mJb9hVgmUEF-105" target="E7OsbplF2mJb9hVgmUEF-12">
          <mxGeometry width="50" height="50" relative="1" as="geometry">
            <mxPoint x="760" y="470" as="sourcePoint" />
            <mxPoint x="810" y="420" as="targetPoint" />
          </mxGeometry>
        </mxCell>
        <mxCell id="E7OsbplF2mJb9hVgmUEF-112" value="" style="endArrow=none;html=1;rounded=0;entryX=0;entryY=0.5;entryDx=0;entryDy=0;exitX=1;exitY=0.5;exitDx=0;exitDy=0;" edge="1" parent="1" source="E7OsbplF2mJb9hVgmUEF-52" target="E7OsbplF2mJb9hVgmUEF-105">
          <mxGeometry width="50" height="50" relative="1" as="geometry">
            <mxPoint x="750" y="650" as="sourcePoint" />
            <mxPoint x="800" y="600" as="targetPoint" />
          </mxGeometry>
        </mxCell>
        <mxCell id="E7OsbplF2mJb9hVgmUEF-113" value="" style="shape=link;html=1;rounded=0;entryX=0;entryY=0.5;entryDx=0;entryDy=0;" edge="1" parent="1" target="E7OsbplF2mJb9hVgmUEF-1">
          <mxGeometry width="100" relative="1" as="geometry">
            <mxPoint x="80" y="510" as="sourcePoint" />
            <mxPoint x="180" y="529.49" as="targetPoint" />
          </mxGeometry>
        </mxCell>
        <mxCell id="E7OsbplF2mJb9hVgmUEF-114" value="Datacenter link" style="text;html=1;strokeColor=none;fillColor=none;align=center;verticalAlign=middle;whiteSpace=wrap;rounded=0;" vertex="1" parent="1">
          <mxGeometry x="80" y="480" width="100" height="30" as="geometry" />
        </mxCell>
      </root>
    </mxGraphModel>
  </diagram>
</mxfile>
